<svg xmlns="http://www.w3.org/2000/svg" width="900" height="1200" viewBox="0 0 900 1200" fill="none">
  <defs>
    <linearGradient id="bg" x1="0" y1="0" x2="1" y2="1">
      <stop offset="0%" stop-color="#0B1D33"/>
      <stop offset="100%" stop-color="#122C4A"/>
    </linearGradient>
    <radialGradient id="glow" cx="0" cy="0" r="1" gradientUnits="userSpaceOnUse" gradientTransform="translate(180 250) rotate(45) scale(420 520)">
      <stop stop-color="#11B3AA" stop-opacity="0.45"/>
      <stop offset="1" stop-color="#11B3AA" stop-opacity="0"/>
    </radialGradient>
  </defs>
  <rect width="900" height="1200" fill="url(#bg)"/>
  <rect width="900" height="1200" fill="url(#glow)"/>
  <rect x="110" y="120" width="680" height="420" rx="26" fill="#0A1628" stroke="#1E4468" stroke-width="2"/>
  <rect x="150" y="170" width="220" height="18" rx="9" fill="#11B3AA"/>
  <rect x="150" y="210" width="540" height="10" rx="5" fill="#294866"/>
  <rect x="150" y="236" width="420" height="10" rx="5" fill="#294866"/>
  <rect x="150" y="292" width="170" height="170" rx="18" fill="#163252"/>
  <rect x="340" y="292" width="170" height="170" rx="18" fill="#193C5F"/>
  <rect x="530" y="292" width="170" height="170" rx="18" fill="#1D456A"/>
  <rect x="110" y="590" width="680" height="470" rx="26" fill="#0A1628" stroke="#1E4468" stroke-width="2"/>
  <polyline points="160,950 250,870 330,900 440,790 530,820 650,700 740,740" stroke="#11B3AA" stroke-width="12" fill="none" stroke-linecap="round" stroke-linejoin="round"/>
  <circle cx="250" cy="870" r="14" fill="#11B3AA"/>
  <circle cx="440" cy="790" r="14" fill="#11B3AA"/>
  <circle cx="650" cy="700" r="14" fill="#11B3AA"/>
</svg>
